<svg viewBox="0 0 170.07874 170.07874" width="170.07874" height="170.07874" data-reactid=".0.1.1.$arrow=1svg0.0.0"><path fill="#808080" d="m 102.69531,57.708984 a 4.0004,4.0004 0 0 0 -3.855466,3.996094 l 0,16 -46,0 a 4.0004,4.0004 0 0 0 -2.603516,7.03711 l 26.791016,22.962892 -69.1875002,0 0,8 80.0000002,0 a 4.0004,4.0004 0 0 0 2.603515,-7.03516 l -26.792968,-22.964842 35.189453,0 0,16.769532 a 4.0004,4.0004 0 0 0 5.203126,3.81445 l 50,-15.767576 a 4.0004,4.0004 0 0 0 0.58594,-7.392578 l -50,-25 a 4.0004,4.0004 0 0 0 -1.9336,-0.419922 z m 4.14453,10.46875 35.3711,17.685547 -35.3711,11.15625 0,-15.314453 0,-13.527344 z" data-reactid=".0.1.1.$arrow=1svg0.0.0.3:$arrow=1svg-0-fill"></path><path fill="#808080" d="m 105,65.078735 40,20.000001 -40,15.000004 z" data-reactid=".0.1.1.$arrow=1svg0.0.0.3:$arrow=1svg-1-fill"></path><path fill="#808080" d="m 105.32545,66.293193 0,37.367247 45.41452,-22.420348 -45.41452,-14.946899" data-reactid=".0.1.1.$arrow=1svg0.0.0.3:$arrow=1svg-2-fill"></path></svg>