<svg viewBox="0 0 24 24" width="24" height="24" data-reactid=".0.1.1.$arrow=1svg0.0.0"><path fill="#808080" d="m 14.615798,8.4155717 a 0.55039063,0.55039063 0 0 0 -0.53045,0.5497982 l 0,2.2013421 -6.328859,0 a 0.55039063,0.55039063 0 0 0 -0.3582019,0.968193 l 3.6860129,3.159325 -9.5190865,0 0,1.100671 11.0067115,0 a 0.55039063,0.55039063 0 0 0 0.358202,-0.967925 l -3.6862808,-3.159592 4.8415018,0 0,2.307217 a 0.55039063,0.55039063 0 0 0 0.715867,0.524807 l 6.879195,-2.169365 a 0.55039063,0.55039063 0 0 0 0.08062,-1.017099 L 14.881831,8.4733463 a 0.55039063,0.55039063 0 0 0 -0.266033,-0.057775 z m 0.570221,1.4403315 4.866494,2.4332468 -4.866494,1.53492 0,-2.107022 0,-1.8611448 z" data-reactid=".0.1.1.$arrow=1svg0.0.0.3:$arrow=1svg-0-fill"></path><path fill="#808080" d="m 14.932887,9.4295308 5.503356,2.7516782 -5.503356,2.063759 z" data-reactid=".0.1.1.$arrow=1svg0.0.0.3:$arrow=1svg-1-fill"></path><path fill="#808080" d="m 14.977663,9.5966207 0,5.1411313 6.248307,-3.084679 -6.248307,-2.0564523" data-reactid=".0.1.1.$arrow=1svg0.0.0.3:$arrow=1svg-2-fill"></path></svg>