<svg viewBox="0 0 24 24" width="24" height="24" data-reactid=".0.1.1.$axes=1svg1.0.0"><path fill="#808080" d="M 17.53334,6.5652016 A 0.54073192,0.56409692 0 0 0 17.117271,6.7590905 L 5.6278671,20.155052 a 0.54073192,0.56409692 0 1 0 0.8057367,0.752146 L 17.923009,7.5112363 A 0.54073192,0.56409692 0 0 0 17.53334,6.5652016 Z" data-reactid=".0.1.1.$axes=1svg1.0.0.3:$axes=1svg-0-fill"></path><path fill="#808080" d="M 6.2451244,6.8275825 A 0.52806583,0.55393541 0 0 0 5.8529821,7.7679345 L 17.733275,20.922585 a 0.52806583,0.55393541 0 1 0 0.766753,-0.761856 L 6.6197353,7.0060791 A 0.52806583,0.55393541 0 0 0 6.2451244,6.8275825 Z" data-reactid=".0.1.1.$axes=1svg1.0.0.3:$axes=1svg-1-fill"></path><path fill="#808080" d="m 16.55334,1.8828528 -3.871482,4.1324894 c 1.891451,0.1436095 3.674003,0.4868688 4.874303,1.8975887 1.298038,1.2953918 1.550029,2.8522951 1.458577,4.4950601 L 22.89103,8.3813151 C 21.423096,8.0483571 20.102143,7.3234518 18.983496,6.0590652 17.64312,5.0457971 17.097664,3.4647289 16.55334,1.8828528 Z" data-reactid=".0.1.1.$axes=1svg1.0.0.3:$axes=1svg-2-fill"></path><path fill="#808080" d="M 7.5738189,1.9702248 11.445302,6.1027142 C 9.55385,6.2463237 7.7712982,6.589583 6.5709985,8.0003029 5.2729599,9.2956947 5.0209695,10.852598 5.112421,12.495363 L 1.2361302,8.468687 C 2.7040631,8.1357291 4.0250163,7.4108238 5.1436633,6.1464372 6.4840396,5.1331691 7.0294951,3.5521008 7.5738189,1.9702248 Z" data-reactid=".0.1.1.$axes=1svg1.0.0.3:$axes=1svg-3-fill"></path></svg>