<svg viewBox="0 0 170.07874 170.07874" width="170.07874" height="170.07874" data-reactid=".0.1.1.$axes=1svg1.0.0"><path fill="#808080" d="m 125.72102,40.829869 a 4.0283705,4.2024362 0 0 0 -3.09965,1.444443 L 37.027057,142.07219 a 4.0283705,4.2024362 0 1 0 6.002616,5.60337 L 128.62399,47.877684 a 4.0283705,4.2024362 0 0 0 -2.90297,-7.047815 z" data-reactid=".0.1.1.$axes=1svg1.0.0.3:$axes=1svg-0-fill"></path><path fill="#808080" d="m 41.62553,42.784567 a 3.9340101,4.1267345 0 0 0 -2.921401,7.005479 L 127.2105,147.79019 a 3.9340101,4.1267345 0 1 0 5.7122,-5.67571 L 44.416324,44.114339 A 3.9340101,4.1267345 0 0 0 41.62553,42.784567 Z" data-reactid=".0.1.1.$axes=1svg1.0.0.3:$axes=1svg-1-fill"></path><path fill="#808080" d="M 118.42017,5.9470833 89.578213,36.7335 c 14.091027,1.069869 27.370767,3.627099 36.312817,14.136747 9.67019,9.650472 11.54748,21.249168 10.86618,33.487512 L 165.63499,54.359638 C 154.69911,51.879152 144.85821,46.478718 136.52446,37.05923 126.53886,29.510537 122.4753,17.731819 118.42017,5.9470833 Z" data-reactid=".0.1.1.$axes=1svg1.0.0.3:$axes=1svg-2-fill"></path><path fill="#808080" d="m 51.524102,6.5979911 28.84196,30.7864169 c -14.09103,1.069869 -27.37077,3.627099 -36.31282,14.136747 -9.67019,9.650472 -11.54748,21.249168 -10.86618,33.487512 L 4.3092853,55.010546 C 15.245162,52.53006 25.086062,47.129626 33.419812,37.710138 c 9.9856,-7.548693 14.04916,-19.327411 18.10429,-31.1121469 z" data-reactid=".0.1.1.$axes=1svg1.0.0.3:$axes=1svg-3-fill"></path></svg>