<svg viewBox="0 0 24 24" width="24" height="24" data-reactid=".0.1.1.$barn=1svg2.0.0"><path fill="#808080" d="m 11.994272,3.3465775 a 0.58672539,0.58672539 0 0 0 -0.249218,0.058437 C 7.474249,5.4661103 3.9205766,8.2725073 1.9358599,12.483167 a 0.58672539,0.58672539 0 0 0 0.5308074,0.836745 l 0.8800001,0 0,8.213333 a 0.58672539,0.58672539 0 0 0 0.5866667,0.586667 l 16.1333349,0 a 0.58672539,0.58672539 0 0 0 0.586667,-0.586667 l 0,-8.213333 0.88,0 a 0.58672539,0.58672539 0 0 0 0.533671,-0.830157 C 20.366789,8.7629422 17.418181,5.5287354 12.223153,3.390692 a 0.58672539,0.58672539 0 0 0 -0.228881,-0.044115 z m 0.02091,1.2389324 c 4.404292,1.8694725 6.960242,4.4841079 8.563959,7.5610681 l -0.512474,0 a 0.58672539,0.58672539 0 0 0 -0.586667,0.586667 l 0,8.213333 -14.9600011,0 0,-8.213333 A 0.58672539,0.58672539 0 0 0 3.9333341,12.146578 l -0.4852605,0 C 5.3075738,8.7790603 8.3086656,6.41199 12.015184,4.5855099 Z" data-reactid=".0.1.1.$barn=1svg2.0.0.3:$barn=1svg-0-fill"></path><path fill="#808080" d="m 7.6000011,13.099912 a 0.36670337,0.36670337 0 0 0 -0.3666667,0.366666 l 0,8.066667 0.7333334,0 0,-7.7 8.0666672,0 0,7.7 0.733334,0 0,-8.066667 a 0.36670337,0.36670337 0 0 0 -0.366667,-0.366666 l -8.8000009,0 z" data-reactid=".0.1.1.$barn=1svg2.0.0.3:$barn=1svg-1-fill"></path><path fill="#808080" d="m 16.152216,13.196448 -8.8000013,8.066668 0.4955729,0.540547 8.8000004,-8.066668 -0.495572,-0.540547 z" data-reactid=".0.1.1.$barn=1svg2.0.0.3:$barn=1svg-2-fill"></path><path fill="#808080" d="m 7.8477876,13.196448 -0.4955729,0.540547 8.8000013,8.066668 0.495572,-0.540547 -8.8000004,-8.066668 z" data-reactid=".0.1.1.$barn=1svg2.0.0.3:$barn=1svg-3-fill"></path><path fill="#808080" d="m 5.4000009,10.679911 a 0.58672539,0.58672539 0 1 0 0,1.173334 l 13.2000011,0 a 0.58672539,0.58672539 0 1 0 0,-1.173334 l -13.2000011,0 z" data-reactid=".0.1.1.$barn=1svg2.0.0.3:$barn=1svg-4-fill"></path></svg>