<svg viewBox="0 0 170.07874 170.07874" width="170.07874" height="170.07874" data-reactid=".0.1.1.$barn=1svg2.0.0"><path fill="#808080" d="m 84.960938,26.078125 a 4.0004,4.0004 0 0 0 -1.699219,0.398437 C 54.142599,40.529484 29.913017,59.664007 16.380859,88.373047 A 4.0004,4.0004 0 0 0 20,94.078125 l 6,0 0,55.999995 a 4.0004,4.0004 0 0 0 4,4 l 110,0 a 4.0004,4.0004 0 0 0 4,-4 l 0,-55.999995 6,0 a 4.0004,4.0004 0 0 0 3.63867,-5.660156 C 142.04627,63.007881 121.94213,40.956473 86.521484,26.378906 a 4.0004,4.0004 0 0 0 -1.560546,-0.300781 z m 0.142578,8.447266 c 30.029264,12.746402 47.456194,30.57346 58.390624,51.552734 l -3.49414,0 a 4.0004,4.0004 0 0 0 -4,4 l 0,55.999995 -102,0 0,-55.999995 a 4.0004,4.0004 0 0 0 -4,-4 l -3.308594,0 C 39.369815,63.117777 59.831803,46.978663 85.103516,34.525391 Z" data-reactid=".0.1.1.$barn=1svg2.0.0.3:$barn=1svg-0-fill"></path><path fill="#808080" d="m 55,92.578125 a 2.50025,2.50025 0 0 0 -2.5,2.5 l 0,54.999995 5,0 0,-52.499995 55,0 0,52.499995 5,0 0,-54.999995 a 2.50025,2.50025 0 0 0 -2.5,-2.5 l -60,0 z" data-reactid=".0.1.1.$barn=1svg2.0.0.3:$barn=1svg-1-fill"></path><path fill="#808080" d="m 113.31055,93.236328 -60.000003,55.000002 3.378906,3.68555 59.999997,-55.000005 -3.3789,-3.685547 z" data-reactid=".0.1.1.$barn=1svg2.0.0.3:$barn=1svg-2-fill"></path><path fill="#808080" d="m 56.689453,93.236328 -3.378906,3.685547 60.000003,55.000005 3.3789,-3.68555 -59.999997,-55.000002 z" data-reactid=".0.1.1.$barn=1svg2.0.0.3:$barn=1svg-3-fill"></path><path fill="#808080" d="m 40,76.078125 a 4.0004,4.0004 0 1 0 0,8 l 90,0 a 4.0004,4.0004 0 1 0 0,-8 l -90,0 z" data-reactid=".0.1.1.$barn=1svg2.0.0.3:$barn=1svg-4-fill"></path></svg>