<svg viewBox="0 0 24 24" width="24" height="24" data-reactid=".0.1.1.$circle-x=1svg3.0.0"><path fill="#808080" d="m 11.784861,1.0525911 c -6.0221126,0 -10.91784654,4.8957328 -10.91784654,10.9178469 0,6.022113 4.89573394,10.917846 10.91784654,10.917846 6.022112,0 10.917846,-4.895733 10.917846,-10.917846 0,-6.0221141 -4.895734,-10.9178469 -10.917846,-10.9178469 z m 0,1.2922233 c 2.276079,-1e-7 4.363789,0.7882736 6.010022,2.1045351 L 11.735501,10.242528 5.9206377,4.3346499 C 7.5435646,3.0873315 9.5754869,2.3448144 11.784861,2.3448144 Z m -7.8146844,4.002497 5.7991698,5.7749176 -5.7683551,5.51499 C 2.8432781,16.048178 2.1592378,14.090977 2.1592378,11.970438 c 0,-2.1013948 0.6721986,-4.0418932 1.8109388,-5.6231266 z m 15.8062684,0.249942 c 1.032112,1.5337169 1.634324,3.3818547 1.634324,5.3731846 0,2.264138 -0.780114,4.341844 -2.083992,5.984058 l -5.541238,-5.629402 5.990906,-5.7278406 z m -7.935947,7.5872826 5.600586,5.57719 c -1.587178,1.153163 -3.540319,1.83462 -5.656223,1.83462 -2.1467,0 -4.1265116,-0.700375 -5.7258421,-1.884266 l 5.7814791,-5.527544 z" data-reactid=".0.1.1.$circle-x=1svg3.0.0.3:$circle-x=1svg-0-fill"></path></svg>