<?xml version="1.0" encoding="UTF-8" standalone="no"?>
<svg
   xmlns:dc="http://purl.org/dc/elements/1.1/"
   xmlns:cc="http://creativecommons.org/ns#"
   xmlns:rdf="http://www.w3.org/1999/02/22-rdf-syntax-ns#"
   xmlns:svg="http://www.w3.org/2000/svg"
   xmlns="http://www.w3.org/2000/svg"
   version="1.1"
   id="svg2"
   viewBox="0 0 170.07874 170.07874"
   height="170.07874"
   width="170.07874">
  <defs
     id="defs4" />
  <metadata
     id="metadata7">
    <rdf:RDF>
      <cc:Work
         rdf:about="">
        <dc:format>image/svg+xml</dc:format>
        <dc:type
           rdf:resource="http://purl.org/dc/dcmitype/StillImage" />
        <dc:title></dc:title>
      </cc:Work>
    </rdf:RDF>
  </metadata>
  <g
     id="layer2">
    <path
       id="path3438"
       d="M 85.173828 9.8652344 C 43.950444 9.8652344 10.4375 43.378172 10.4375 84.601562 C 10.4375 125.82495 43.950444 159.33789 85.173828 159.33789 C 126.39721 159.33789 159.91016 125.82495 159.91016 84.601562 C 159.91016 43.378172 126.39721 9.8652344 85.173828 9.8652344 z M 85.173828 18.710938 C 100.75435 18.710937 115.04543 24.106936 126.31445 33.117188 L 84.835938 72.773438 L 45.03125 32.332031 C 56.14073 23.793717 70.049923 18.710938 85.173828 18.710938 z M 31.679688 46.109375 L 71.376953 85.640625 L 31.890625 123.39258 C 23.965689 112.51506 19.283203 99.11737 19.283203 84.601562 C 19.283203 70.216812 23.884628 56.93345 31.679688 46.109375 z M 139.87891 47.820312 C 146.94406 58.31912 151.06641 70.970245 151.06641 84.601562 C 151.06641 100.10035 145.72626 114.32294 136.80078 125.56445 L 98.869141 87.029297 L 139.87891 47.820312 z M 85.554688 99.757812 L 123.89258 137.93555 C 113.02781 145.82933 99.6579 150.49414 85.173828 150.49414 C 70.478944 150.49414 56.926471 145.69983 45.978516 137.5957 L 85.554688 99.757812 z "
       style="color:#000000;font-style:normal;font-variant:normal;font-weight:normal;font-stretch:normal;font-size:medium;line-height:normal;font-family:sans-serif;text-indent:0;text-align:start;text-decoration:none;text-decoration-line:none;text-decoration-style:solid;text-decoration-color:#000000;letter-spacing:normal;word-spacing:normal;text-transform:none;direction:ltr;block-progression:tb;writing-mode:lr-tb;baseline-shift:baseline;text-anchor:start;white-space:normal;clip-rule:nonzero;display:inline;overflow:visible;visibility:visible;opacity:1;isolation:auto;mix-blend-mode:normal;color-interpolation:sRGB;color-interpolation-filters:linearRGB;solid-color:#000000;solid-opacity:1;fill:#000000;fill-opacity:1;fill-rule:evenodd;stroke:none;stroke-width:8.8445425;stroke-linecap:butt;stroke-linejoin:round;stroke-miterlimit:4;stroke-dasharray:none;stroke-dashoffset:0;stroke-opacity:1;color-rendering:auto;image-rendering:auto;shape-rendering:auto;text-rendering:auto;enable-background:accumulate" />
  </g>
</svg>
