<svg viewBox="0 0 170.07874 170.07874" width="170.07874" height="170.07874" data-reactid=".0.1.1.$circle-x=1svg14.0.0"><path fill="#808080" d="M 85.173828 9.8652344 C 43.950444 9.8652344 10.4375 43.378172 10.4375 84.601562 C 10.4375 125.82495 43.950444 159.33789 85.173828 159.33789 C 126.39721 159.33789 159.91016 125.82495 159.91016 84.601562 C 159.91016 43.378172 126.39721 9.8652344 85.173828 9.8652344 z M 85.173828 18.710938 C 100.75435 18.710937 115.04543 24.106936 126.31445 33.117188 L 84.835938 72.773438 L 45.03125 32.332031 C 56.14073 23.793717 70.049923 18.710938 85.173828 18.710938 z M 31.679688 46.109375 L 71.376953 85.640625 L 31.890625 123.39258 C 23.965689 112.51506 19.283203 99.11737 19.283203 84.601562 C 19.283203 70.216812 23.884628 56.93345 31.679688 46.109375 z M 139.87891 47.820312 C 146.94406 58.31912 151.06641 70.970245 151.06641 84.601562 C 151.06641 100.10035 145.72626 114.32294 136.80078 125.56445 L 98.869141 87.029297 L 139.87891 47.820312 z M 85.554688 99.757812 L 123.89258 137.93555 C 113.02781 145.82933 99.6579 150.49414 85.173828 150.49414 C 70.478944 150.49414 56.926471 145.69983 45.978516 137.5957 L 85.554688 99.757812 z " data-reactid=".0.1.1.$circle-x=1svg14.0.0.3:$circle-x=1svg-0-fill"></path></svg>