<svg viewBox="0 0 170.07874 170.07874" width="170.07874" height="170.07874" data-reactid=".0.1.1.$cloud=1svg3.0.0"><path fill="#808080" d="M 54.582031,49.791016 C 35.694055,49.80804 20.379594,65.648412 19.982422,85.130859 l -0.08398,4.080079 69.386718,0 -0.08398,-4.080079 C 88.803882,65.642896 73.481215,49.800143 54.587891,49.791016 l -0.0039,0 -0.002,0 z m 0.002,8 0.0059,0 c 13.112307,0.0093 24.016491,10.022281 26.146484,23.419922 l -52.287109,0 C 30.578785,67.817631 41.475984,57.805843 54.583984,57.791016 Z" data-reactid=".0.1.1.$cloud=1svg3.0.0.3:$cloud=1svg-0-fill"></path><path fill="#808080" d="M 115.11719,50.117188 C 96.22921,50.134211 80.912798,65.97263 80.515625,85.455078 l -0.08203,4.082031 69.384766,0 -0.082,-4.082031 C 149.33904,65.967116 134.01442,50.126317 115.12109,50.117188 l -0.002,0 -0.002,0 z m 0,8 0.006,0 c 13.1123,0.0093 24.01844,10.022282 26.14843,23.419921 l -52.289058,0 C 91.111988,68.143803 102.00919,58.132014 115.11719,58.117188 Z" data-reactid=".0.1.1.$cloud=1svg3.0.0.3:$cloud=1svg-1-fill"></path><path fill="#808080" d="m 85.322266,21.275391 c -10.805249,-0.0962 -19.567549,2.553707 -25.542969,8.339843 -5.982982,5.79346 -8.702923,14.334331 -8.615235,24.580078 l 8,-0.06836 c -0.07563,-8.836481 2.122557,-14.837011 6.179688,-18.765625 4.057131,-3.928614 10.441737,-6.178539 19.941406,-6.08789 l 0.03906,0 0.03906,0 c 9.153899,-0.09023 15.360489,2.138437 19.351559,6.066406 3.99108,3.927969 6.1986,9.950621 6.12305,18.787109 l 7.99805,0.06836 c 0.0876,-10.245741 -2.62257,-18.764489 -8.50977,-24.558593 -5.87994,-5.786963 -14.4992,-8.458072 -25.003904,-8.361328 z" data-reactid=".0.1.1.$cloud=1svg3.0.0.3:$cloud=1svg-2-fill"></path><path fill="#808080" d="M 24.923828,84.890625 A 5.0005,5.0005 0 0 0 20,89.960938 l 0,65.000002 a 5.0005,5.0005 0 1 0 10,0 l 0,-65.000002 a 5.0005,5.0005 0 0 0 -5.076172,-5.070313 z" data-reactid=".0.1.1.$cloud=1svg3.0.0.3:$cloud=1svg-3-fill"></path><path fill="#808080" d="m 50.634688,84.890625 a 5.0005,5.0005 0 0 0 -4.923828,5.070313 l 0,65.000002 a 5.0005,5.0005 0 1 0 10,0 l 0,-65.000002 a 5.0005,5.0005 0 0 0 -5.076172,-5.070313 z" data-reactid=".0.1.1.$cloud=1svg3.0.0.3:$cloud=1svg-4-fill"></path><path fill="#808080" d="m 72.440101,85.541533 a 5.0005,5.0005 0 0 0 -4.923828,5.070313 l 0,65.000004 a 5.0005,5.0005 0 1 0 10,0 l 0,-65.000004 a 5.0005,5.0005 0 0 0 -5.076172,-5.070313 z" data-reactid=".0.1.1.$cloud=1svg3.0.0.3:$cloud=1svg-5-fill"></path><path fill="#808080" d="m 97.174599,85.263355 a 5.0005,5.0005 0 0 0 -4.923828,5.070313 l 0,65.000002 a 5.0005,5.0005 0 1 0 9.999999,0 l 0,-65.000002 a 5.0005,5.0005 0 0 0 -5.076171,-5.070313 z" data-reactid=".0.1.1.$cloud=1svg3.0.0.3:$cloud=1svg-6-fill"></path><path fill="#808080" d="m 119.63092,85.588809 a 5.0005,5.0005 0 0 0 -4.92383,5.070313 l 0,65.000008 a 5.0005,5.0005 0 1 0 10,0 l 0,-65.000008 a 5.0005,5.0005 0 0 0 -5.07617,-5.070313 z" data-reactid=".0.1.1.$cloud=1svg3.0.0.3:$cloud=1svg-7-fill"></path><path fill="#808080" d="m 144.73815,85.588809 a 5.0005,5.0005 0 0 0 -4.92383,5.070313 l 0,65.000008 a 5.0005,5.0005 0 1 0 10,0 l 0,-65.000008 a 5.0005,5.0005 0 0 0 -5.07617,-5.070313 z" data-reactid=".0.1.1.$cloud=1svg3.0.0.3:$cloud=1svg-8-fill"></path></svg>