<svg viewBox="0 0 24 24" width="24" height="24" data-reactid=".0.1.1.$cloud=1svg4.0.0"><path fill="#808080" d="m 7.5386986,6.6778017 c -2.7702367,0.0025 -5.0163579,2.3257517 -5.0746098,5.1831773 l -0.012317,0.598412 10.1767193,0 -0.01232,-0.598412 C 12.557904,9.0027443 10.310579,6.6791404 7.5395581,6.6778017 l -5.72e-4,0 -2.934e-4,0 z m 2.933e-4,1.1733335 8.654e-4,0 c 1.9231385,0.00136 3.5224187,1.4699347 3.8348177,3.4349218 l -7.6687764,0 C 4.0182222,9.3217055 5.6164782,7.8533098 7.538985,7.8511352 Z" data-reactid=".0.1.1.$cloud=1svg4.0.0.3:$cloud=1svg-0-fill"></path><path fill="#808080" d="m 16.417189,6.7256403 c -2.770237,0.0025 -5.016644,2.325465 -5.074896,5.1828907 l -0.01203,0.598698 10.176433,0 -0.01203,-0.598698 C 21.436395,9.0502966 19.188783,6.7269792 16.417761,6.7256403 l -2.93e-4,0 -2.93e-4,0 z m 0,1.1733334 8.8e-4,0 c 1.923138,0.00136 3.522705,1.4699349 3.835104,3.4349223 l -7.669063,0 c 0.312316,-1.9643519 1.910573,-3.4327478 3.833079,-3.4349223 z" data-reactid=".0.1.1.$cloud=1svg4.0.0.3:$cloud=1svg-1-fill"></path><path fill="#808080" d="M 12.047267,2.4955097 C 10.462497,2.4814003 9.1773593,2.8700534 8.3009643,3.7186868 7.4234602,4.5683943 7.0245355,5.8210555 7.0373964,7.3237652 L 8.2107299,7.3137391 C 8.1996375,6.0177217 8.5220382,5.1376439 9.1170842,4.5614472 9.7121301,3.9852504 10.648539,3.6552613 12.041824,3.6685565 l 0.0057,0 0.0057,0 c 1.342572,-0.013234 2.252872,0.3136375 2.838229,0.8897397 0.585359,0.5761021 0.909128,1.4594245 0.898048,2.7554429 l 1.173047,0.010026 c 0.01285,-1.5027088 -0.384644,-2.7521253 -1.2481,-3.6019273 -0.862391,-0.8487546 -2.12655,-1.2405173 -3.66724,-1.2263282 z" data-reactid=".0.1.1.$cloud=1svg4.0.0.3:$cloud=1svg-2-fill"></path><path fill="#808080" d="m 3.1888284,11.825745 a 0.73340673,0.73340673 0 0 0 -0.7221615,0.743646 l 0,9.533334 a 0.73340673,0.73340673 0 1 0 1.4666668,0 l 0,-9.533334 A 0.73340673,0.73340673 0 0 0 3.1888284,11.825745 Z" data-reactid=".0.1.1.$cloud=1svg4.0.0.3:$cloud=1svg-3-fill"></path><path fill="#808080" d="m 6.9597549,11.825745 a 0.73340673,0.73340673 0 0 0 -0.7221615,0.743646 l 0,9.533334 a 0.73340673,0.73340673 0 1 0 1.4666668,0 l 0,-9.533334 A 0.73340673,0.73340673 0 0 0 6.9597549,11.825745 Z" data-reactid=".0.1.1.$cloud=1svg4.0.0.3:$cloud=1svg-4-fill"></path><path fill="#808080" d="m 10.157882,11.921211 a 0.73340673,0.73340673 0 0 0 -0.7221611,0.743646 l 0,9.533335 a 0.73340673,0.73340673 0 1 0 1.4666671,0 l 0,-9.533335 a 0.73340673,0.73340673 0 0 0 -0.744506,-0.743646 z" data-reactid=".0.1.1.$cloud=1svg4.0.0.3:$cloud=1svg-5-fill"></path><path fill="#808080" d="m 13.785609,11.880412 a 0.73340673,0.73340673 0 0 0 -0.722161,0.743646 l 0,9.533334 a 0.73340673,0.73340673 0 1 0 1.466666,0 l 0,-9.533334 a 0.73340673,0.73340673 0 0 0 -0.744505,-0.743646 z" data-reactid=".0.1.1.$cloud=1svg4.0.0.3:$cloud=1svg-6-fill"></path><path fill="#808080" d="m 17.079203,11.928145 a 0.73340673,0.73340673 0 0 0 -0.722162,0.743646 l 0,9.533336 a 0.73340673,0.73340673 0 1 0 1.466667,0 l 0,-9.533336 a 0.73340673,0.73340673 0 0 0 -0.744505,-0.743646 z" data-reactid=".0.1.1.$cloud=1svg4.0.0.3:$cloud=1svg-7-fill"></path><path fill="#808080" d="m 20.761597,11.928145 a 0.73340673,0.73340673 0 0 0 -0.722162,0.743646 l 0,9.533336 a 0.73340673,0.73340673 0 1 0 1.466667,0 l 0,-9.533336 a 0.73340673,0.73340673 0 0 0 -0.744505,-0.743646 z" data-reactid=".0.1.1.$cloud=1svg4.0.0.3:$cloud=1svg-8-fill"></path></svg>