<svg viewBox="0 0 170.07874 170.07874" width="170.07874" height="170.07874" data-reactid=".0.1.1.$corn=1svg4.0.0"><path fill="#808080" d="M 84.955078,12.037109 A 3.0003,3.0003 0 0 0 82,15.078125 l 0,139.999995 a 3.0003,3.0003 0 1 0 6,0 L 88,15.078125 a 3.0003,3.0003 0 0 0 -3.044922,-3.041016 z" data-reactid=".0.1.1.$corn=1svg4.0.0.3:$corn=1svg-0-fill"></path><path fill="#808080" d="M 59.955078,12.037109 A 3.0003,3.0003 0 0 0 57,15.078125 l 0,81.699219 28,16.800776 28,-16.800776 0,-81.699219 a 3.0003,3.0003 0 1 0 -6,0 L 107,93.380859 85,106.58008 63,93.380859 63,15.078125 a 3.0003,3.0003 0 0 0 -3.044922,-3.041016 z" data-reactid=".0.1.1.$corn=1svg4.0.0.3:$corn=1svg-1-fill"></path><path fill="#808080" d="m 59.945312,77.0625 a 3.0003,3.0003 0 0 0 -1.058593,5.800781 L 85,93.310547 111.11328,82.863281 a 3.0003,3.0003 0 1 0 -2.22656,-5.570312 L 85,86.847656 61.113281,77.292969 A 3.0003,3.0003 0 0 0 59.945312,77.0625 Z" data-reactid=".0.1.1.$corn=1svg4.0.0.3:$corn=1svg-2-fill"></path><path fill="#808080" d="m 61.21875,57.78125 -2.4375,5.482422 25.851562,11.5 L 111.47656,63.619141 109.17578,58.078125 84.714844,68.234375 61.21875,57.78125 Z" data-reactid=".0.1.1.$corn=1svg4.0.0.3:$corn=1svg-3-fill"></path><path fill="#808080" d="M 61.113281,37.292969 58.886719,42.863281 85,53.310547 111.11328,42.863281 108.88672,37.292969 85,46.847656 61.113281,37.292969 Z" data-reactid=".0.1.1.$corn=1svg4.0.0.3:$corn=1svg-4-fill"></path></svg>