<svg viewBox="0 0 24 24" width="24" height="24" data-reactid=".0.1.1.$corn=1svg5.0.0"><path fill="#808080" d="m 12.054854,1.2856248 a 0.43758754,0.43758754 0 0 0 -0.430992,0.4435258 l 0,20.4187094 a 0.43758754,0.43758754 0 1 0 0.875088,0 l 0,-20.4187094 A 0.43758754,0.43758754 0 0 0 12.054854,1.2856248 Z" data-reactid=".0.1.1.$corn=1svg5.0.0.3:$corn=1svg-0-fill"></path><path fill="#808080" d="m 8.4086558,1.2856248 a 0.43758754,0.43758754 0 0 0 -0.430992,0.4435258 l 0,11.9156624 4.0837422,2.450358 4.083742,-2.450358 0,-11.9156624 a 0.43758754,0.43758754 0 1 0 -0.875088,0 l 0,11.4202914 -3.208654,1.925079 -3.2086546,-1.925079 0,-11.4202914 A 0.43758754,0.43758754 0 0 0 8.4086558,1.2856248 Z" data-reactid=".0.1.1.$corn=1svg5.0.0.3:$corn=1svg-1-fill"></path><path fill="#808080" d="m 8.4072314,10.769443 a 0.43758754,0.43758754 0 0 0 -0.1543935,0.846032 l 3.8085681,1.523712 3.808568,-1.523712 a 0.43758754,0.43758754 0 1 0 -0.32474,-0.812418 l -3.483828,1.393531 -3.4838287,-1.393531 a 0.43758754,0.43758754 0 0 0 -0.1703459,-0.03361 z" data-reactid=".0.1.1.$corn=1svg5.0.0.3:$corn=1svg-2-fill"></path><path fill="#808080" d="M 8.5929597,7.957313 8.2374554,8.7569129 12.007852,10.434164 15.922957,8.8087574 15.587393,8.0006116 12.019816,9.4818797 8.5929597,7.957313 Z" data-reactid=".0.1.1.$corn=1svg5.0.0.3:$corn=1svg-3-fill"></path><path fill="#808080" d="M 8.5775773,4.9691397 8.2528379,5.7815581 12.061406,7.3052703 15.869974,5.7815581 15.545234,4.9691397 12.061406,6.362671 8.5775773,4.9691397 Z" data-reactid=".0.1.1.$corn=1svg5.0.0.3:$corn=1svg-4-fill"></path></svg>