<svg viewBox="0 0 170.07874 170.07874" width="170.07874" height="170.07874" data-reactid=".0.1.1.$moon=1svg5.0.0"><path fill="#808080" d="M 115.08398,9.984375 C 71.017825,9.9843707 34.966797,43.580479 34.966797,85.242188 34.966805,126.90389 71.017831,160.5 115.08398,160.5 a 3.9319325,3.9319325 0 0 0 0.0352,0 c 3.49371,-0.03 6.98133,-0.27476 10.44141,-0.73242 a 3.9319325,3.9319325 0 0 0 0.24023,-7.75586 C 92.37032,145.46909 68.658353,117.9435 68.646484,86.175781 l 0,-0.002 c 0,-0.0013 10e-7,-0.0026 0,-0.0039 C 68.69483,52.319733 95.566517,23.665648 131.6875,19.486328 a 3.9319325,3.9319325 0 0 0 0.33984,-7.755859 C 126.46426,10.585149 120.78943,9.9992971 115.0957,9.984375 a 3.9319325,3.9319325 0 0 0 -0.0117,0 z m -8.55273,8.375 C 79.387443,30.445862 60.822981,56.392667 60.783203,86.166016 a 3.9319325,3.9319325 0 0 0 0,0.0059 c 0.0078,27.568315 15.957712,52.087105 40.183597,65.162105 -33.25789,-6.12521 -58.136716,-33.44965 -58.136722,-66.091792 0,-34.435931 27.695818,-62.932091 63.701172,-66.882813 z" data-reactid=".0.1.1.$moon=1svg5.0.0.3:$moon=1svg-0-fill"></path></svg>