<svg viewBox="0 0 24 24" width="24" height="24" data-reactid=".0.1.1.$moon=1svg6.0.0"><path fill="#808080" d="m 16.412319,0.9838435 c -6.4630371,-6.3e-7 -11.7505217,4.927429 -11.7505217,11.0378135 1.2e-6,6.110384 5.2874855,11.037814 11.7505217,11.037814 a 0.57668349,0.57668349 0 0 0 0.0052,0 c 0.512411,-0.0044 1.023929,-0.0403 1.531407,-0.107422 a 0.57668349,0.57668349 0 0 0 0.03523,-1.137526 C 13.080981,20.854937 9.603226,16.81785 9.6014852,12.158584 l 0,-2.93e-4 c 0,-1.91e-4 2e-7,-3.82e-4 0,-5.72e-4 0.00709,-4.9646891 3.9482718,-9.1672886 9.2460168,-9.7802556 a 0.57668349,0.57668349 0 0 0 0.04984,-1.1375261 C 18.081426,1.071957 17.249118,0.98603208 16.414038,0.9838435 a 0.57668349,0.57668349 0 0 0 -0.0017,0 z m -1.254401,1.2283334 c -3.981092,1.772685 -6.70388,5.5782167 -6.7097141,9.9449751 a 0.57668349,0.57668349 0 0 0 0,8.65e-4 c 0.00114,4.043353 2.3404651,7.639443 5.8935951,9.55711 -4.8778247,-0.898365 -8.5267195,-4.905949 -8.5267203,-9.693464 0,-5.0506036 4.0620536,-9.2300408 9.3428393,-9.80948 z" data-reactid=".0.1.1.$moon=1svg6.0.0.3:$moon=1svg-0-fill"></path></svg>