<svg viewBox="0 0 24 24" width="24" height="24" data-reactid=".0.1.1.$oil=1svg8.0.0"><path fill="#808080" d="M 11.393584,4.15792 6.6219723,22.44996 a 0.46809685,0.46809685 0 1 0 0.9056282,0.23616 l 4.5893885,-17.5921 0.836762,0 4.58939,17.5921 a 0.46809685,0.46809685 0 1 0 0.905626,-0.23616 l -4.771611,-18.29204 -2.283572,0 z" data-reactid=".0.1.1.$oil=1svg8.0.0.3:$oil=1svg-0-fill"></path><path fill="#808080" d="m 8.6349532,17.41934 a 0.46809685,0.46809685 0 1 0 0,0.9361 l 7.8008338,0 a 0.46809685,0.46809685 0 1 0 0,-0.9361 l -7.8008338,0 z" data-reactid=".0.1.1.$oil=1svg8.0.0.3:$oil=1svg-1-fill"></path><path fill="#808080" d="m 10.19512,12.89486 a 0.31206456,0.31206456 0 1 0 0,0.62406 l 4.6805,0 a 0.31206456,0.31206456 0 1 0 0,-0.62406 l -4.6805,0 z" data-reactid=".0.1.1.$oil=1svg8.0.0.3:$oil=1svg-2-fill"></path><path fill="#808080" d="m 7.8548698,11.17867 0,0.9361 9.3610012,0 0,-0.9361 -9.3610012,0 z" data-reactid=".0.1.1.$oil=1svg8.0.0.3:$oil=1svg-3-fill"></path><path fill="#808080" d="m 9.4150366,4.15792 0,0.9361 6.2406674,0 0,-0.9361 -6.2406674,0 z" data-reactid=".0.1.1.$oil=1svg8.0.0.3:$oil=1svg-4-fill"></path><path fill="#808080" d="m 10.975203,8.99444 a 0.31206456,0.31206456 0 1 0 0,0.62407 l 3.120334,0 a 0.31206456,0.31206456 0 1 0 0,-0.62407 l -3.120334,0 z" data-reactid=".0.1.1.$oil=1svg8.0.0.3:$oil=1svg-5-fill"></path><path fill="#808080" d="m 10.975203,7.43427 a 0.31206456,0.31206456 0 1 0 0,0.62407 l 3.120334,0 a 0.31206456,0.31206456 0 1 0 0,-0.62407 l -3.120334,0 z" data-reactid=".0.1.1.$oil=1svg8.0.0.3:$oil=1svg-6-fill"></path><path fill="#808080" d="m 10.507153,1.03759 0,3.58838 0.9361,0 0,-2.65228 2.184234,0 0,2.65228 0.9361,0 0,-3.58838 -4.056434,0 z" data-reactid=".0.1.1.$oil=1svg8.0.0.3:$oil=1svg-7-fill"></path><path fill="#808080" d="m 11.910389,4.62597 0,17.99281 1.249962,0 0,-17.99281 -1.249962,0 z" data-reactid=".0.1.1.$oil=1svg8.0.0.3:$oil=1svg-8-fill"></path></svg>