<svg viewBox="0 0 170.07874 170.07874" width="170.07874" height="170.07874" data-reactid=".0.1.1.$oil=1svg8.0.0"><path fill="#808080" d="M 77.681641,32.078125 47.097656,149.32227 a 3.0003,3.0003 0 1 0 5.804688,1.51367 l 29.416015,-112.757815 5.363282,0 29.416019,112.757815 a 3.0003,3.0003 0 1 0 5.80468,-1.51367 L 92.318359,32.078125 l -14.636718,0 z" data-reactid=".0.1.1.$oil=1svg8.0.0.3:$oil=1svg-0-fill"></path><path fill="#808080" d="m 60,117.07812 a 3.0003,3.0003 0 1 0 0,6 l 50,0 a 3.0003,3.0003 0 1 0 0,-6 l -50,0 z" data-reactid=".0.1.1.$oil=1svg8.0.0.3:$oil=1svg-1-fill"></path><path fill="#808080" d="m 70,88.078125 a 2.0002,2.0002 0 1 0 0,4 l 30,0 a 2.0002,2.0002 0 1 0 0,-4 l -30,0 z" data-reactid=".0.1.1.$oil=1svg8.0.0.3:$oil=1svg-2-fill"></path><path fill="#808080" d="m 55,77.078125 0,6 60,0 0,-6 -60,0 z" data-reactid=".0.1.1.$oil=1svg8.0.0.3:$oil=1svg-3-fill"></path><path fill="#808080" d="m 65,32.078125 0,6 40,0 0,-6 -40,0 z" data-reactid=".0.1.1.$oil=1svg8.0.0.3:$oil=1svg-4-fill"></path><path fill="#808080" d="m 75,63.078125 a 2.0002,2.0002 0 1 0 0,4 l 20,0 a 2.0002,2.0002 0 1 0 0,-4 l -20,0 z" data-reactid=".0.1.1.$oil=1svg8.0.0.3:$oil=1svg-5-fill"></path><path fill="#808080" d="m 75,53.078125 a 2.0002,2.0002 0 1 0 0,4 l 20,0 a 2.0002,2.0002 0 1 0 0,-4 l -20,0 z" data-reactid=".0.1.1.$oil=1svg8.0.0.3:$oil=1svg-6-fill"></path><path fill="#808080" d="m 72,12.078125 0,23 6,0 0,-17 14,0 0,17 6,0 0,-23 -26,0 z" data-reactid=".0.1.1.$oil=1svg8.0.0.3:$oil=1svg-7-fill"></path><path fill="#808080" d="m 80.994141,35.078125 0,115.326175 8.011718,0 0,-115.326175 -8.011718,0 z" data-reactid=".0.1.1.$oil=1svg8.0.0.3:$oil=1svg-8-fill"></path></svg>