<svg viewBox="0 0 24 24" width="24" height="24" data-reactid=".0.1.1.$rail=1svg9.0.0"><path fill="#808080" d="M 1.7659225,8.2016926 16.352124,22.497642 17.550283,21.275156 2.9640824,6.9792066 1.7659225,8.2016926 Z" data-reactid=".0.1.1.$rail=1svg9.0.0.3:$rail=1svg-0-fill"></path><path fill="#808080" d="m 1.7448766,11.129036 0.3056215,0.29954 2.1393508,2.096779 8.9861991,-9.1686464 -2.444972,-2.396319 -8.9861994,9.1686464 z m 1.2103232,-0.01216 7.7880382,-7.9461604 1.222487,1.19816 -7.7880391,7.9461604 -1.2224861,-1.19816 z" data-reactid=".0.1.1.$rail=1svg9.0.0.3:$rail=1svg-1-fill"></path><path fill="#808080" d="m 11.015676,20.067557 0.305622,0.29954 2.139351,2.096779 8.986198,-9.168646 -2.444972,-2.396319 -8.986199,9.168646 z m 1.210323,-0.01216 7.788039,-7.94616 1.222486,1.19816 -7.788039,7.94616 -1.222486,-1.19816 z" data-reactid=".0.1.1.$rail=1svg9.0.0.3:$rail=1svg-2-fill"></path><path fill="#808080" d="M 7.8887173,17.15062 8.1943391,17.45016 10.33369,19.546939 19.319889,10.378293 16.874916,7.9819736 7.8887173,17.15062 Z M 9.0990406,17.13846 16.887079,9.1922996 18.109565,10.390459 10.321527,18.33662 9.0990406,17.13846 Z" data-reactid=".0.1.1.$rail=1svg9.0.0.3:$rail=1svg-3-fill"></path><path fill="#808080" d="m 4.7987008,14.195991 0.3056214,0.29954 2.1393511,2.09678 L 16.229872,7.4236646 13.7849,5.0273446 4.7987008,14.195991 Z m 1.2103229,-0.01216 7.7880393,-7.9461594 1.222486,1.198159 -7.7880392,7.9461604 -1.2224861,-1.19816 z" data-reactid=".0.1.1.$rail=1svg9.0.0.3:$rail=1svg-4-fill"></path><path fill="#808080" d="M 6.6407975,3.0770426 21.264691,17.409935 22.462851,16.187449 7.838957,1.8545566 6.6407975,3.0770426 Z" data-reactid=".0.1.1.$rail=1svg9.0.0.3:$rail=1svg-5-fill"></path></svg>