<svg viewBox="0 0 170.07874 170.07874" width="170.07874" height="170.07874" data-reactid=".0.1.1.$shovel=1svg13.0.0"><path fill="#808080" d="m 55,13.078125 a 4.0004,4.0004 0 0 0 -4,4 l 0,25 a 4.0004,4.0004 0 0 0 4,4 l 60,0 a 4.0004,4.0004 0 0 0 4,-4 l 0,-25 a 4.0004,4.0004 0 0 0 -4,-4 l -60,0 z m 4,8 52,0 0,17 -52,0 0,-17 z" data-reactid=".0.1.1.$shovel=1svg13.0.0.3:$shovel=1svg-0-fill"></path><path fill="#808080" d="m 81,42.078125 0,59.000005 4,0 0,-8.000005 4,4 0,-55 -8,0 z" data-reactid=".0.1.1.$shovel=1svg13.0.0.3:$shovel=1svg-1-fill"></path><path fill="#808080" d="m 55,93.078125 a 4.0004,4.0004 0 0 0 -4,4 l 0,9.999995 a 4.0004,4.0004 0 0 0 0.671875,2.21876 l 30,45 a 4.0004,4.0004 0 0 0 6.65625,0 l 29.999995,-45 A 4.0004,4.0004 0 0 0 119,107.07812 l 0,-9.999995 a 4.0004,4.0004 0 0 0 -4,-4 l -30,0 -30,0 z m 4,8.000005 26,0 26,0 0,4.78906 -26,39 -26,-39 0,-4.78906 z" data-reactid=".0.1.1.$shovel=1svg13.0.0.3:$shovel=1svg-2-fill"></path></svg>