<svg viewBox="0 0 24 24" width="24" height="24" data-reactid=".0.1.1.$shovel=1svg10.0.0"><path fill="#808080" d="M 7.4950128,1.117738 A 0.61073535,0.61073535 0 0 0 6.8843385,1.7284123 l 0,3.8167143 a 0.61073535,0.61073535 0 0 0 0.6106743,0.6106743 l 9.1601142,0 a 0.61073535,0.61073535 0 0 0 0.610674,-0.6106743 l 0,-3.8167143 A 0.61073535,0.61073535 0 0 0 16.655127,1.117738 l -9.1601142,0 z m 0.6106742,1.2213486 7.938766,0 0,2.5953657 -7.938766,0 0,-2.5953657 z" data-reactid=".0.1.1.$shovel=1svg10.0.0.3:$shovel=1svg-0-fill"></path><path fill="#808080" d="m 11.464396,5.5451266 0,9.0074464 0.610674,0 0,-1.221349 0.610674,0.610674 0,-8.3967714 -1.221348,0 z" data-reactid=".0.1.1.$shovel=1svg10.0.0.3:$shovel=1svg-1-fill"></path><path fill="#808080" d="m 7.4950128,13.331224 a 0.61073535,0.61073535 0 0 0 -0.6106743,0.610674 l 0,1.526685 a 0.61073535,0.61073535 0 0 0 0.1025742,0.338735 l 4.5800573,6.870085 a 0.61073535,0.61073535 0 0 0 1.0162,0 l 4.580056,-6.870085 a 0.61073535,0.61073535 0 0 0 0.102575,-0.338735 l 0,-1.526685 a 0.61073535,0.61073535 0 0 0 -0.610674,-0.610674 l -4.580057,0 -4.5800572,0 z m 0.6106742,1.221349 3.969383,0 3.969383,0 0,0.731139 -3.969383,5.954074 -3.969383,-5.954074 0,-0.731139 z" data-reactid=".0.1.1.$shovel=1svg10.0.0.3:$shovel=1svg-2-fill"></path></svg>