<svg viewBox="0 0 24 24" width="24" height="24" data-reactid=".0.1.1.$star=1svg11.0.0"><path fill="#808080" d="M 15.433021,11.861946 A 3.5471373,3.6189517 0 0 1 11.885884,15.480898 3.5471373,3.6189517 0 0 1 8.3387466,11.861946 3.5471373,3.6189517 0 0 1 11.885884,8.2429938 3.5471373,3.6189517 0 0 1 15.433021,11.861946 Z" data-reactid=".0.1.1.$star=1svg11.0.0.3:$star=1svg-0-fill"></path><path fill="#808080" d="m 11.885884,2.3752218 a 0.588485,0.57696968 0 0 0 -0.579519,0.5856445 l -0.0089,-0.00873 0,18.0284991 a 0.588485,0.57696968 0 1 0 1.176852,0 l 0,-17.9344128 A 0.588485,0.57696968 0 0 0 11.885884,2.3752218 Z" data-reactid=".0.1.1.$star=1svg11.0.0.3:$star=1svg-1-fill"></path><path fill="#808080" d="m 2.9562576,11.297368 a 0.55104368,0.588485 0 1 0 0,1.176852 l 17.9071294,0 a 0.55104368,0.588485 0 1 0 0,-1.176852 l -17.9071294,0 z" data-reactid=".0.1.1.$star=1svg11.0.0.3:$star=1svg-2-fill"></path><path fill="#808080" d="M 7.3517271,6.8134917 A 0.44136375,0.44136375 0 0 0 7.0422863,7.5705733 L 16.199669,16.77565 a 0.44136375,0.44136375 0 1 0 0.625489,-0.62233 L 7.6680636,6.9482437 A 0.44136375,0.44136375 0 0 0 7.3517271,6.8134917 Z" data-reactid=".0.1.1.$star=1svg11.0.0.3:$star=1svg-3-fill"></path><path fill="#808080" d="M 16.476355,6.8660708 A 0.41710668,0.41710668 0 0 0 16.189612,6.9922032 L 7.1531908,16.028624 a 0.41710668,0.41710668 0 1 0 0.5898628,0.589863 L 16.779474,7.582066 A 0.41710668,0.41710668 0 0 0 16.476355,6.8660708 Z" data-reactid=".0.1.1.$star=1svg11.0.0.3:$star=1svg-4-fill"></path></svg>