<svg viewBox="0 0 170.07874 170.07874" width="170.07874" height="170.07874" data-reactid=".0.1.1.$star=1svg9.0.0"><path fill="#808080" d="M 109.11271,84.916007 A 24.11271,24.600889 0 0 1 85,109.5169 24.11271,24.600889 0 0 1 60.88729,84.916007 24.11271,24.600889 0 0 1 85,60.315117 a 24.11271,24.600889 0 0 1 24.11271,24.60089 z" data-reactid=".0.1.1.$star=1svg9.0.0.3:$star=1svg-0-fill"></path><path fill="#808080" d="m 85,20.42721 a 4.0004,3.9221212 0 0 0 -3.939453,3.981091 L 81,24.34894 81,146.90297 a 4.0004,3.9221212 0 1 0 8,0 L 89,24.988519 A 4.0004,3.9221212 0 0 0 85,20.42721 Z" data-reactid=".0.1.1.$star=1svg9.0.0.3:$star=1svg-1-fill"></path><path fill="#808080" d="m 24.298237,81.078125 a 3.7458816,4.0004 0 1 0 0,8 l 121.728983,0 a 3.7458816,4.0004 0 1 0 0,-8 l -121.728983,0 z" data-reactid=".0.1.1.$star=1svg9.0.0.3:$star=1svg-2-fill"></path><path fill="#808080" d="m 54.177734,50.597656 a 3.0003,3.0003 0 0 0 -2.103515,5.146485 l 62.250001,62.574219 a 3.0003,3.0003 0 1 0 4.25195,-4.23047 L 56.328125,51.513672 a 3.0003,3.0003 0 0 0 -2.150391,-0.916016 z" data-reactid=".0.1.1.$star=1svg9.0.0.3:$star=1svg-3-fill"></path><path fill="#808080" d="M 116.20508,50.955078 A 2.8354054,2.8354054 0 0 0 114.25586,51.8125 L 52.828125,113.24023 A 2.8354054,2.8354054 0 1 0 56.837891,117.25 L 118.26562,55.822266 a 2.8354054,2.8354054 0 0 0 -2.06054,-4.867188 z" data-reactid=".0.1.1.$star=1svg9.0.0.3:$star=1svg-4-fill"></path></svg>