<svg viewBox="0 0 170.07874 170.07874" width="170.07874" height="170.07874" data-reactid=".0.1.1.$tnt=1svg10.0.0"><path fill="#808080" d="m 36,66.078125 0,4 0,83.999995 98,0 0,-87.999995 -98,0 z m 8,8 82,0 0,71.999995 -82,0 0,-71.999995 z" data-reactid=".0.1.1.$tnt=1svg10.0.0.3:$tnt=1svg-0-fill"></path><path fill="#808080" d="m 47,12.078125 0,3 0,28 76,0 0,-31 -76,0 z m 6,6 64,0 0,19 -64,0 0,-19 z" data-reactid=".0.1.1.$tnt=1svg10.0.0.3:$tnt=1svg-1-fill"></path><path fill="#808080" d="m 80,40.078125 0,30 10,0 0,-30 -10,0 z" data-reactid=".0.1.1.$tnt=1svg10.0.0.3:$tnt=1svg-2-fill"></path><path fill="#808080" d="m 61.875,87.736328 -3.75,4.685547 50,40.000005 3.75,-4.68555 -50,-40.000002 z" data-reactid=".0.1.1.$tnt=1svg10.0.0.3:$tnt=1svg-3-fill"></path><path fill="#808080" d="m 108.125,87.736328 -50,40.000002 3.75,4.68555 50,-40.000005 -3.75,-4.685547 z" data-reactid=".0.1.1.$tnt=1svg10.0.0.3:$tnt=1svg-4-fill"></path></svg>