<svg viewBox="0 0 24 24" width="24" height="24" data-reactid=".0.1.1.$tnt=1svg12.0.0"><path fill="#808080" d="m 5.1400002,9.3399153 0,0.5600001 0,11.7599996 13.7200008,0 0,-12.3199997 -13.7200008,0 z m 1.1200001,1.1199997 11.4800007,0 0,10.08 -11.4800007,0 0,-10.08 z" data-reactid=".0.1.1.$tnt=1svg12.0.0.3:$tnt=1svg-0-fill"></path><path fill="#808080" d="m 6.6800003,1.7799148 0,0.42 0,3.9200003 10.6400007,0 0,-4.3400003 -10.6400007,0 z m 0.8400001,0.84 8.9600006,0 0,2.6600002 -8.9600006,0 0,-2.6600002 z" data-reactid=".0.1.1.$tnt=1svg12.0.0.3:$tnt=1svg-1-fill"></path><path fill="#808080" d="m 11.300001,5.6999151 0,4.2000003 1.4,0 0,-4.2000003 -1.4,0 z" data-reactid=".0.1.1.$tnt=1svg12.0.0.3:$tnt=1svg-2-fill"></path><path fill="#808080" d="m 8.7625005,12.372064 -0.5250001,0.655977 7.0000006,5.600001 0.525,-0.655977 -7.0000005,-5.600001 z" data-reactid=".0.1.1.$tnt=1svg12.0.0.3:$tnt=1svg-3-fill"></path><path fill="#808080" d="m 15.237501,12.372064 -7.0000006,5.600001 0.5250001,0.655977 7.0000005,-5.600001 -0.525,-0.655977 z" data-reactid=".0.1.1.$tnt=1svg12.0.0.3:$tnt=1svg-4-fill"></path></svg>