<svg viewBox="0 0 170.07874 170.07874" width="170.07874" height="170.07874" data-reactid=".0.1.1.$tower=1svg11.0.0"><path fill="#808080" d="m 60,17.078125 a 3.0003,3.0003 0 0 0 -3,3 l 0,50 a 3.0003,3.0003 0 0 0 1.125,2.34375 l 25,20 a 3.0003,3.0003 0 0 0 3.75,0 l 25,-20 A 3.0003,3.0003 0 0 0 113,70.078125 l 0,-50 a 3.0003,3.0003 0 0 0 -3,-3 l -50,0 z m 3,6 44,0 0,45.558594 L 85,86.236328 63,68.636719 63,23.078125 Z" data-reactid=".0.1.1.$tower=1svg11.0.0.3:$tower=1svg-0-fill"></path><path fill="#808080" d="m 60,67.078125 0,6 50,0 0,-6 -50,0 z" data-reactid=".0.1.1.$tower=1svg11.0.0.3:$tower=1svg-1-fill"></path><path fill="#808080" d="m 60,27.078125 0,6 50,0 0,-6 -50,0 z" data-reactid=".0.1.1.$tower=1svg11.0.0.3:$tower=1svg-2-fill"></path><path fill="#808080" d="m 60,37.078125 0,6 50,0 0,-6 -50,0 z" data-reactid=".0.1.1.$tower=1svg11.0.0.3:$tower=1svg-3-fill"></path><path fill="#808080" d="m 65.115234,92.041016 a 3.0003,3.0003 0 0 0 -2.935546,2.011718 l -20,54.999996 a 3.0009323,3.0009323 0 1 0 5.640624,2.05079 l 20,-55.000004 a 3.0003,3.0003 0 0 0 -2.705078,-4.0625 z" data-reactid=".0.1.1.$tower=1svg11.0.0.3:$tower=1svg-4-fill"></path><path fill="#808080" d="m 105.09375,92.041016 a 3.0003,3.0003 0 0 0 -2.91406,4.0625 l 20,55.000004 a 3.0009304,3.0009304 0 1 0 5.64062,-2.05079 l -20,-54.999996 a 3.0003,3.0003 0 0 0 -2.72656,-2.011718 z" data-reactid=".0.1.1.$tower=1svg11.0.0.3:$tower=1svg-5-fill"></path><path fill="#808080" d="m 63.970703,95.962891 -3.085937,5.144529 2.572265,1.54297 49.999999,30 2.57227,1.54492 3.08593,-5.14648 -2.57226,-1.54297 -50.000001,-30.000001 -2.572266,-1.542968 z" data-reactid=".0.1.1.$tower=1svg11.0.0.3:$tower=1svg-6-fill"></path><path fill="#808080" d="m 106.0293,95.962891 -2.57227,1.542968 -49.999999,30.000001 -2.572265,1.54297 3.085937,5.14648 2.572266,-1.54492 50.000001,-30 2.57226,-1.54297 -3.08593,-5.144529 z" data-reactid=".0.1.1.$tower=1svg11.0.0.3:$tower=1svg-7-fill"></path></svg>