<svg viewBox="0 0 24 24" width="24" height="24" data-reactid=".0.1.1.$tower=1svg13.0.0"><path fill="#808080" d="M 8.2283184,2.0325269 A 0.44259436,0.44259436 0 0 0 7.7857683,2.475077 l 0,7.375835 a 0.44259436,0.44259436 0 0 0 0.1659562,0.345742 l 3.6879175,2.950334 a 0.44259436,0.44259436 0 0 0 0.553188,0 l 3.687917,-2.950334 a 0.44259436,0.44259436 0 0 0 0.165956,-0.345742 l 0,-7.375835 a 0.44259436,0.44259436 0 0 0 -0.44255,-0.4425501 l -7.3758346,0 z m 0.4425501,0.8851002 6.4907345,0 0,6.7206535 -3.245367,2.5962364 -3.2453675,-2.5962364 0,-6.7206535 z" data-reactid=".0.1.1.$tower=1svg13.0.0.3:$tower=1svg-0-fill"></path><path fill="#808080" d="m 8.2283184,9.4083619 0,0.8851001 7.3758346,0 0,-0.8851001 -7.3758346,0 z" data-reactid=".0.1.1.$tower=1svg13.0.0.3:$tower=1svg-1-fill"></path><path fill="#808080" d="m 8.2283184,3.5076939 0,0.8851002 7.3758346,0 0,-0.8851002 -7.3758346,0 z" data-reactid=".0.1.1.$tower=1svg13.0.0.3:$tower=1svg-2-fill"></path><path fill="#808080" d="m 8.2283184,4.9828609 0,0.8851002 7.3758346,0 0,-0.8851002 -7.3758346,0 z" data-reactid=".0.1.1.$tower=1svg13.0.0.3:$tower=1svg-3-fill"></path><path fill="#808080" d="m 8.9829008,13.090805 a 0.44259436,0.44259436 0 0 0 -0.4330421,0.296762 l -2.950334,8.113418 A 0.44268763,0.44268763 0 0 0 6.431611,21.803511 L 9.381945,13.690092 A 0.44259436,0.44259436 0 0 0 8.9829008,13.090805 Z" data-reactid=".0.1.1.$tower=1svg13.0.0.3:$tower=1svg-4-fill"></path><path fill="#808080" d="m 14.8804,13.090805 a 0.44259436,0.44259436 0 0 0 -0.429873,0.599287 l 2.950334,8.113419 a 0.44268735,0.44268735 0 0 0 0.832086,-0.302526 L 15.282613,13.387567 A 0.44259436,0.44259436 0 0 0 14.8804,13.090805 Z" data-reactid=".0.1.1.$tower=1svg13.0.0.3:$tower=1svg-5-fill"></path><path fill="#808080" d="m 8.8140634,13.669347 -0.4552273,0.758904 0.3794521,0.227614 7.3758348,4.425501 0.379453,0.227902 0.455226,-0.759192 -0.379451,-0.227614 -7.3758354,-4.425501 -0.3794522,-0.227614 z" data-reactid=".0.1.1.$tower=1svg13.0.0.3:$tower=1svg-6-fill"></path><path fill="#808080" d="m 15.018409,13.669347 -0.379453,0.227614 -7.3758348,4.425501 -0.3794521,0.227614 0.4552273,0.759192 0.3794522,-0.227902 7.3758354,-4.425501 0.379451,-0.227614 -0.455226,-0.758904 z" data-reactid=".0.1.1.$tower=1svg13.0.0.3:$tower=1svg-7-fill"></path></svg>