<svg viewBox="0 0 24 24" width="24" height="24" data-reactid=".0.1.1.$wagon=1svg14.0.0"><path fill="#808080" d="m 12.054898,0.92581672 c -6.1069705,0 -11.06924892,4.97506518 -11.06924892,11.09411328 3e-7,6.119048 4.96227852,11.093817 11.06924892,11.093817 6.106969,0 11.069248,-4.974769 11.069249,-11.093817 0,-6.1190482 -4.96228,-11.09411343 -11.069249,-11.09411328 z m 0,1.21245198 c 5.450168,-10e-8 9.856797,4.4163299 9.856797,9.8816613 -1e-6,5.465332 -4.406629,9.881365 -9.856797,9.881365 -5.4501682,0 -9.8567968,-4.416033 -9.8567969,-9.881365 0,-5.4653312 4.4066286,-9.8816613 9.8567969,-9.8816613 z" data-reactid=".0.1.1.$wagon=1svg14.0.0.3:$wagon=1svg-0-fill"></path><path fill="#808080" d="M 14.337125,12.053472 A 2.2733475,2.2733475 0 0 1 12.063778,14.32682 2.2733475,2.2733475 0 0 1 9.7904305,12.053472 2.2733475,2.2733475 0 0 1 12.063778,9.7801241 2.2733475,2.2733475 0 0 1 14.337125,12.053472 Z" data-reactid=".0.1.1.$wagon=1svg14.0.0.3:$wagon=1svg-1-fill"></path><path fill="#808080" d="m 1.454823,11.295597 0,1.515565 21.21791,0 0,-1.515565 -21.21791,0 z" data-reactid=".0.1.1.$wagon=1svg14.0.0.3:$wagon=1svg-2-fill"></path><path fill="#808080" d="m 11.305995,1.4444241 0,21.2179089 1.515565,0 0,-21.2179089 -1.515565,0 z" data-reactid=".0.1.1.$wagon=1svg14.0.0.3:$wagon=1svg-3-fill"></path><path fill="#808080" d="M 5.191342,3.728724 4.1106139,4.7910995 18.640206,19.571114 19.720934,18.50874 5.191342,3.728724 Z" data-reactid=".0.1.1.$wagon=1svg14.0.0.3:$wagon=1svg-4-fill"></path><path fill="#808080" d="M 18.781402,3.6375532 4.2734186,19.068195 5.3775314,20.106298 19.885515,4.6756561 18.781402,3.6375532 Z" data-reactid=".0.1.1.$wagon=1svg14.0.0.3:$wagon=1svg-5-fill"></path></svg>