<svg viewBox="0 0 170.07874 170.07874" width="170.07874" height="170.07874" data-reactid=".0.1.1.$wagon=1svg12.0.0"><path fill="#808080" d="m 84.941406,11.65625 c -40.295007,0 -73.037109,32.826472 -73.037109,73.201172 2e-6,40.374698 32.742103,73.199218 73.037109,73.199218 40.295004,0 73.037104,-32.82452 73.037114,-73.199218 0,-40.374701 -32.74211,-73.201173 -73.037114,-73.201172 z m 0,8 c 35.961294,-1e-6 65.037114,29.139825 65.037114,65.201172 -1e-5,36.061348 -29.07582,65.199218 -65.037114,65.199218 -35.961294,0 -65.037108,-29.13787 -65.037109,-65.199218 0,-36.061346 29.075814,-65.201172 65.037109,-65.201172 z" data-reactid=".0.1.1.$wagon=1svg12.0.0.3:$wagon=1svg-0-fill"></path><path fill="#808080" d="M 100,85.078735 A 15,15 0 0 1 85,100.07874 15,15 0 0 1 70,85.078735 a 15,15 0 0 1 15,-15 15,15 0 0 1 15,15 z" data-reactid=".0.1.1.$wagon=1svg12.0.0.3:$wagon=1svg-1-fill"></path><path fill="#808080" d="m 15,80.078125 0,10 140,0 0,-10 -140,0 z" data-reactid=".0.1.1.$wagon=1svg12.0.0.3:$wagon=1svg-2-fill"></path><path fill="#808080" d="m 80,15.078125 0,139.999995 10,0 0,-139.999995 -10,0 z" data-reactid=".0.1.1.$wagon=1svg12.0.0.3:$wagon=1svg-3-fill"></path><path fill="#808080" d="m 39.654297,30.150391 -7.130859,7.009765 95.869142,97.521484 7.13086,-7.00976 -95.869143,-97.521489 z" data-reactid=".0.1.1.$wagon=1svg12.0.0.3:$wagon=1svg-4-fill"></path><path fill="#808080" d="m 129.32422,29.548828 -95.726564,101.814452 7.285156,6.84961 95.726568,-101.814452 -7.28516,-6.84961 z" data-reactid=".0.1.1.$wagon=1svg12.0.0.3:$wagon=1svg-5-fill"></path></svg>